<svg width="420" height="274" viewBox="0 0 420 274" fill="none" xmlns="http://www.w3.org/2000/svg">
<g clip-path="url(#clip0_72_16)">
<path d="M247.998 18.084H201.582V18.9663H247.998V18.084Z" fill="#CCCCCC"/>
<path d="M165.332 18.084H18.1245V18.9663H165.332V18.084Z" fill="#CCCCCC"/>
<path d="M18.1245 36.6089C28.1343 36.6089 36.2489 28.5124 36.2489 18.5249C36.2489 8.53739 28.1343 0.440918 18.1245 0.440918C8.1146 0.440918 0 8.53739 0 18.5249C0 28.5124 8.1146 36.6089 18.1245 36.6089Z" fill="#009F55"/>
<path d="M100.79 36.6089C110.8 36.6089 118.915 28.5124 118.915 18.5249C118.915 8.53739 110.8 0.440918 100.79 0.440918C90.7806 0.440918 82.666 8.53739 82.666 18.5249C82.666 28.5124 90.7806 36.6089 100.79 36.6089Z" fill="#3F3D56"/>
<path d="M183.455 37.0507C179.782 37.0507 176.193 35.9642 173.139 33.9286C170.086 31.8931 167.706 28.9998 166.301 25.6147C164.896 22.2297 164.528 18.5048 165.244 14.9112C165.961 11.3177 167.729 8.01678 170.326 5.42596C172.922 2.83514 176.231 1.07077 179.832 0.355969C183.434 -0.358836 187.167 0.00802298 190.56 1.41016C193.952 2.8123 196.852 5.18675 198.892 8.23323C200.932 11.2797 202.021 14.8614 202.021 18.5254C202.021 23.4386 200.065 28.1506 196.583 31.6248C193.101 35.099 188.379 37.0507 183.455 37.0507ZM183.455 0.882283C179.957 0.882283 176.539 1.91703 173.631 3.85568C170.723 5.79433 168.456 8.5498 167.118 11.7737C165.78 14.9975 165.429 18.5449 166.112 21.9674C166.794 25.3898 168.478 28.5335 170.951 31.0009C173.424 33.4683 176.575 35.1487 180.005 35.8294C183.435 36.5102 186.99 36.1608 190.221 34.8255C193.452 33.4901 196.214 31.2287 198.157 28.3273C200.1 25.426 201.137 22.0148 201.137 18.5254C201.137 13.8461 199.274 9.35855 195.958 6.04983C192.642 2.74111 188.144 0.882283 183.455 0.882283Z" fill="#CCCCCC"/>
<path d="M266.121 37.0507C262.448 37.0507 258.859 35.9642 255.805 33.9286C252.752 31.8931 250.372 28.9998 248.967 25.6147C247.562 22.2297 247.194 18.5048 247.91 14.9112C248.627 11.3177 250.395 8.01678 252.992 5.42596C255.588 2.83514 258.897 1.07077 262.498 0.355969C266.1 -0.358836 269.833 0.00802298 273.226 1.41016C276.618 2.8123 279.518 5.18675 281.558 8.23323C283.598 11.2797 284.687 14.8614 284.687 18.5254C284.687 23.4386 282.731 28.1506 279.249 31.6248C275.767 35.099 271.045 37.0507 266.121 37.0507ZM266.121 0.882283C262.623 0.882283 259.204 1.91703 256.297 3.85568C253.389 5.79433 251.122 8.5498 249.784 11.7737C248.446 14.9975 248.095 18.5449 248.778 21.9674C249.46 25.3898 251.144 28.5335 253.617 31.0009C256.09 33.4683 259.241 35.1487 262.671 35.8294C266.101 36.5102 269.656 36.1608 272.887 34.8255C276.118 33.4901 278.88 31.2287 280.823 28.3273C282.766 25.426 283.803 22.0148 283.803 18.5254C283.803 16.2084 283.346 13.9142 282.457 11.7737C281.568 9.6331 280.266 7.68814 278.624 6.04983C276.982 4.41151 275.033 3.11193 272.887 2.22528C270.742 1.33863 268.443 0.882283 266.121 0.882283Z" fill="#CCCCCC"/>
<path d="M16.7292 23.9168C16.4108 23.9171 16.1009 23.814 15.8464 23.6232L15.8307 23.6115L12.5041 21.0728C12.193 20.8348 11.9893 20.4832 11.938 20.0954C11.8867 19.7076 11.9919 19.3153 12.2304 19.0049C12.469 18.6944 12.8214 18.4913 13.21 18.4401C13.5987 18.3888 13.9919 18.4938 14.303 18.7318L16.4575 20.3804L21.5487 13.7528C21.7871 13.4425 22.1393 13.2394 22.5278 13.1882C22.9163 13.137 23.3092 13.2419 23.6203 13.4797L23.5889 13.5233L23.6212 13.4797C23.932 13.718 24.1352 14.0695 24.1864 14.4571C24.2377 14.8447 24.1326 15.2368 23.8944 15.5472L17.9057 23.3389C17.767 23.5186 17.5887 23.6639 17.3845 23.7636C17.1804 23.8633 16.956 23.9148 16.7287 23.9139L16.7292 23.9168Z" fill="white"/>
<path d="M322.009 95.8907C322.348 96.0451 322.674 96.2264 322.983 96.4328L353.956 83.2432L355.061 75.1026L367.437 75.0267L366.706 93.6989L325.825 104.487C325.739 104.771 325.635 105.048 325.516 105.319C324.924 106.578 323.974 107.634 322.783 108.355C321.592 109.076 320.215 109.43 318.823 109.372C317.432 109.315 316.088 108.848 314.961 108.031C313.834 107.214 312.975 106.083 312.49 104.78C312.005 103.477 311.917 102.061 312.237 100.708C312.557 99.3555 313.27 98.1273 314.287 97.1776C315.303 96.228 316.579 95.5994 317.953 95.3707C319.327 95.142 320.738 95.3234 322.008 95.8921L322.009 95.8907Z" fill="#FEB8B8"/>
<path d="M371.938 265.085H363.472L359.444 232.503H371.939L371.938 265.085Z" fill="#FEB8B8"/>
<path d="M357.425 262.671H373.752V272.925H347.144C347.144 270.205 348.227 267.596 350.155 265.672C352.083 263.749 354.698 262.668 357.425 262.668V262.671Z" fill="#2F2E41"/>
<path d="M404.864 262.698L396.439 263.525L389.23 231.494L401.665 230.275L404.864 262.698Z" fill="#FEB8B8"/>
<path d="M390.178 261.718L406.424 260.121L407.432 270.327L380.957 272.929C380.69 270.222 381.512 267.521 383.241 265.418C384.97 263.316 387.465 261.985 390.178 261.718H390.178Z" fill="#2F2E41"/>
<path d="M374.295 40.5436C383.662 40.5436 391.255 32.967 391.255 23.6208C391.255 14.2746 383.662 6.698 374.295 6.698C364.928 6.698 357.334 14.2746 357.334 23.6208C357.334 32.967 364.928 40.5436 374.295 40.5436Z" fill="#FEB8B8"/>
<path d="M361.579 258.495C360.852 258.497 360.147 258.242 359.589 257.775C359.031 257.309 358.656 256.661 358.53 255.946C354.151 231.68 339.825 152.318 339.482 150.118C339.474 150.067 339.47 150.016 339.471 149.965V144.047C339.47 143.831 339.538 143.621 339.663 143.446L341.556 140.804C341.646 140.676 341.763 140.571 341.9 140.497C342.037 140.422 342.19 140.38 342.346 140.373C353.135 139.868 388.464 138.389 390.171 140.517C391.885 142.653 391.276 149.135 391.137 150.411L391.144 150.544L407.018 251.829C407.142 252.636 406.942 253.461 406.462 254.123C405.982 254.785 405.259 255.232 404.451 255.366L394.538 256.996C393.799 257.114 393.043 256.964 392.406 256.573C391.769 256.182 391.294 255.576 391.067 254.865C388.001 245.089 377.72 212.202 374.156 199.477C374.137 199.393 374.087 199.319 374.016 199.271C373.945 199.222 373.858 199.202 373.772 199.214C373.687 199.226 373.609 199.27 373.555 199.337C373.501 199.404 373.473 199.489 373.479 199.575C373.657 211.705 374.087 242.654 374.239 253.344L374.254 254.495C374.261 255.274 373.974 256.028 373.451 256.607C372.927 257.185 372.206 257.547 371.428 257.62L361.868 258.485C361.772 258.493 361.676 258.496 361.579 258.495Z" fill="#2F2E41"/>
<path d="M363.531 47.1981C360.571 48.9538 358.799 52.1795 357.783 55.4679C355.902 61.5459 354.769 67.8299 354.41 74.1812L353.336 93.1964L340.039 143.612C351.564 153.341 358.211 151.13 373.725 143.171C389.239 135.213 391.011 145.825 391.011 145.825L394.113 102.928L398.545 56.0527C397.55 54.8574 396.424 53.7772 395.188 52.8323C391.091 49.6532 386.325 47.4433 381.248 46.3691C376.171 45.2949 370.916 45.3844 365.879 46.6309L363.531 47.1981Z" fill="#E6E6E6"/>
<path d="M359.212 106.072C359.569 106.206 359.915 106.367 360.248 106.555L390.874 91.2587L391.382 82.9727L404.015 82.1036L404.692 100.992L363.765 114.498C363.431 115.929 362.668 117.224 361.578 118.212C360.488 119.2 359.123 119.834 357.663 120.028C356.204 120.223 354.719 119.969 353.408 119.301C352.096 118.634 351.019 117.583 350.321 116.29C349.622 114.996 349.335 113.522 349.497 112.061C349.659 110.601 350.263 109.224 351.228 108.115C352.193 107.005 353.474 106.215 354.9 105.85C356.327 105.485 357.831 105.562 359.212 106.07L359.212 106.072Z" fill="#FEB8B8"/>
<path d="M398.324 56.2641C405.859 58.9173 407.187 87.6654 407.187 87.6654C398.322 82.8009 387.685 90.7609 387.685 90.7609C387.685 90.7609 385.469 83.2423 382.809 73.5137C382.006 70.7771 381.91 67.8822 382.53 65.0985C383.15 62.3149 384.466 59.733 386.355 57.5931C386.355 57.5931 390.789 53.6094 398.324 56.2641Z" fill="#E6E6E6"/>
<path d="M389.5 28.0949C387.386 26.4081 384.504 29.4728 384.504 29.4728L382.813 14.2955C382.813 14.2955 372.248 15.5585 365.484 13.8737C358.72 12.1889 357.665 19.9904 357.665 19.9904C357.316 16.8398 357.246 13.6647 357.454 10.5017C357.876 6.70637 363.37 2.91107 373.091 0.380701C382.812 -2.14967 387.884 8.81493 387.884 8.81493C394.65 12.186 391.615 29.7836 389.5 28.0949Z" fill="#2F2E41"/>
<path d="M420 272.928H58.3616V274H420V272.928Z" fill="#E6E6E6"/>
<path d="M93.2485 254.004C94.796 254.546 96.4574 254.682 98.0729 254.398C99.6883 254.115 101.203 253.42 102.472 252.383C105.702 249.677 106.715 245.221 107.539 241.094L109.976 228.887L104.873 232.393C101.203 234.914 97.451 237.516 94.9096 241.168C92.3682 244.82 91.2593 249.806 93.301 253.757" fill="#E6E6E6"/>
<path d="M94.0366 269.632C93.3942 264.962 92.7335 260.233 93.1843 255.514C93.5844 251.323 94.8659 247.23 97.4751 243.873C98.8599 242.095 100.545 240.572 102.454 239.372C102.952 239.058 103.411 239.845 102.915 240.157C99.6102 242.241 97.054 245.317 95.6148 248.943C94.0258 252.976 93.7708 257.372 94.0455 261.655C94.2112 264.246 94.5619 266.819 94.9155 269.389C94.9433 269.505 94.9259 269.628 94.8667 269.732C94.8075 269.836 94.711 269.913 94.5967 269.949C94.4801 269.98 94.3557 269.964 94.2507 269.905C94.1457 269.845 94.0684 269.747 94.0356 269.631L94.0366 269.632Z" fill="#F2F2F2"/>
<path d="M98.6602 262.14C99.3238 263.146 100.236 263.965 101.309 264.518C102.382 265.07 103.579 265.338 104.786 265.295C107.887 265.148 110.473 262.988 112.8 260.94L119.684 254.876L115.128 254.658C111.852 254.502 108.491 254.356 105.368 255.364C102.246 256.372 99.3698 258.798 98.7994 262.019" fill="#E6E6E6"/>
<path d="M92.2212 272.316C95.3109 266.857 98.8999 260.789 105.308 258.85C107.09 258.313 108.959 258.12 110.813 258.283C111.398 258.332 111.251 259.232 110.666 259.182C107.558 258.924 104.455 259.743 101.881 261.501C99.4041 263.183 97.4757 265.522 95.8436 268.002C94.8436 269.519 93.948 271.105 93.0525 272.687C92.7671 273.192 91.9333 272.827 92.2212 272.316Z" fill="#F2F2F2"/>
<path d="M310.16 114.797H155.335C154.575 114.796 153.846 114.495 153.309 113.958C152.771 113.422 152.469 112.695 152.468 111.937V73.617C152.469 72.8586 152.771 72.1315 153.309 71.5952C153.846 71.0589 154.575 70.7573 155.335 70.7563H310.16C310.92 70.7573 311.648 71.0589 312.186 71.5952C312.723 72.1315 313.026 72.8586 313.027 73.617V111.937C313.026 112.695 312.723 113.422 312.186 113.958C311.648 114.495 310.92 114.796 310.16 114.797ZM155.335 71.9009C154.879 71.9014 154.442 72.0824 154.119 72.4042C153.797 72.7261 153.615 73.1624 153.615 73.6175V111.937C153.615 112.392 153.796 112.829 154.119 113.15C154.442 113.472 154.879 113.653 155.335 113.654H310.16C310.616 113.653 311.053 113.472 311.376 113.15C311.698 112.829 311.88 112.392 311.88 111.937V73.617C311.88 73.1619 311.698 72.7255 311.376 72.4036C311.053 72.0818 310.616 71.9008 310.16 71.9004L155.335 71.9009Z" fill="#E6E6E6"/>
<path d="M206.365 83.5374C205.849 83.5374 205.354 83.742 204.989 84.1062C204.624 84.4705 204.419 84.9645 204.419 85.4796C204.419 85.9947 204.624 86.4886 204.989 86.8529C205.354 87.2171 205.849 87.4217 206.365 87.4217H298.129C298.646 87.4217 299.141 87.2171 299.506 86.8529C299.871 86.4886 300.076 85.9947 300.076 85.4796C300.076 84.9645 299.871 84.4705 299.506 84.1062C299.141 83.742 298.646 83.5374 298.129 83.5374H206.365Z" fill="#E6E6E6"/>
<path d="M206.365 95.1909C205.849 95.1909 205.354 95.3955 204.989 95.7598C204.624 96.124 204.419 96.618 204.419 97.1331C204.419 97.6482 204.624 98.1422 204.989 98.5064C205.354 98.8707 205.849 99.0753 206.365 99.0753H245.852C246.368 99.0753 246.863 98.8707 247.228 98.5064C247.593 98.1422 247.798 97.6482 247.798 97.1331C247.798 96.618 247.593 96.124 247.228 95.7598C246.863 95.3955 246.368 95.1909 245.852 95.1909H206.365Z" fill="#E6E6E6"/>
<path d="M179.502 102.871C185.952 102.871 191.181 97.6539 191.181 91.218C191.181 84.7822 185.952 79.5649 179.502 79.5649C173.051 79.5649 167.823 84.7822 167.823 91.218C167.823 97.6539 173.051 102.871 179.502 102.871Z" fill="#E6E6E6"/>
<path d="M177.666 97.6944C177.274 97.695 176.892 97.5682 176.578 97.3333L176.558 97.3186L172.459 94.1898C172.075 93.8965 171.824 93.4631 171.761 92.985C171.697 92.5068 171.827 92.0232 172.121 91.6403C172.415 91.2575 172.849 91.0068 173.328 90.9435C173.807 90.8802 174.292 91.0094 174.676 91.3027L177.331 93.3339L183.605 85.1669C183.899 84.7845 184.333 84.5343 184.812 84.4711C185.29 84.408 185.775 84.5371 186.158 84.8302L186.119 84.884L186.159 84.8302C186.542 85.1237 186.793 85.5568 186.856 86.0344C186.919 86.512 186.79 86.9951 186.496 87.3777L179.117 96.9854C178.946 97.2065 178.726 97.3855 178.475 97.5084C178.224 97.6312 177.948 97.6947 177.668 97.6939L177.666 97.6944Z" fill="#009F55"/>
</g>
<defs>
<clipPath id="clip0_72_16">
<rect width="420" height="274" fill="white"/>
</clipPath>
</defs>
</svg>
