<svg width="250" height="250" viewBox="0 0 250 250" fill="none" xmlns="http://www.w3.org/2000/svg">
<path d="M30 97.9938V230.081C30 235.604 34.4771 240.081 40 240.081H136.396C141.919 240.081 146.396 235.604 146.396 230.081V123.685V86.8829V28.5317C146.396 20.3789 137.165 15.6523 130.55 20.4186L34.1538 89.8807C31.5456 91.7601 30 94.7789 30 97.9938Z" stroke="white" stroke-width="10"/>
<path d="M74.8987 146.45L144.394 91.7856C148.238 88.7622 153.705 88.9622 157.317 92.2584L216.74 146.478C218.817 148.373 220 151.054 220 153.865V230.081C220 235.604 215.523 240.081 210 240.081H81.0811C75.5582 240.081 71.0811 235.604 71.0811 230.081V154.31C71.0811 151.243 72.4882 148.346 74.8987 146.45Z" stroke="#1E1E1E" stroke-width="18"/>
<path d="M74.8987 146.45L144.394 91.7856C148.238 88.7622 153.705 88.9622 157.317 92.2584L216.74 146.478C218.817 148.373 220 151.054 220 153.865V230.081C220 235.604 215.523 240.081 210 240.081H81.0811C75.5582 240.081 71.0811 235.604 71.0811 230.081V154.31C71.0811 151.243 72.4882 148.346 74.8987 146.45Z" stroke="#009F55" stroke-width="10"/>
</svg>
