<svg width="250" height="250" viewBox="0 0 250 250" fill="none" xmlns="http://www.w3.org/2000/svg">
<path d="M69 111.12V182C69 187.523 73.4772 192 79 192H127C132.523 192 137 187.523 137 182V124V102.5V76.5317C137 68.3789 127.768 63.6523 121.154 68.4186L73.1538 103.007C70.5456 104.886 69 107.905 69 111.12Z" stroke="#1E1E1E" stroke-width="5"/>
<path d="M96.8176 136.051L133.061 107.543C136.904 104.52 142.371 104.72 145.983 108.016L176.74 136.08C178.817 137.974 180 140.656 180 143.467V182C180 187.523 175.523 192 170 192H103C97.4772 192 93 187.523 93 182V143.911C93 140.844 94.4072 137.947 96.8176 136.051Z" stroke="white" stroke-width="10"/>
<path d="M96.8176 136.051L133.061 107.543C136.904 104.52 142.371 104.72 145.983 108.016L176.74 136.08C178.817 137.974 180 140.656 180 143.467V182C180 187.523 175.523 192 170 192H103C97.4772 192 93 187.523 93 182V143.911C93 140.844 94.4072 137.947 96.8176 136.051Z" stroke="#009F55" stroke-width="6"/>
</svg>
