<svg width="250" height="250" viewBox="0 0 250 250" fill="none" xmlns="http://www.w3.org/2000/svg">
<path d="M72.7344 185.938H78.7695C80.0664 185.938 81.1719 186.133 82.0859 186.523C83 186.914 83.6992 187.492 84.1836 188.258C84.6758 189.016 84.9219 189.953 84.9219 191.07C84.9219 191.922 84.7656 192.672 84.4531 193.32C84.1406 193.969 83.6992 194.516 83.1289 194.961C82.5586 195.398 81.8789 195.738 81.0898 195.98L80.1992 196.414H74.7734L74.75 194.082H78.8164C79.5195 194.082 80.1055 193.957 80.5742 193.707C81.043 193.457 81.3945 193.117 81.6289 192.688C81.8711 192.25 81.9922 191.758 81.9922 191.211C81.9922 190.617 81.875 190.102 81.6406 189.664C81.4141 189.219 81.0625 188.879 80.5859 188.645C80.1094 188.402 79.5039 188.281 78.7695 188.281H75.6758V203H72.7344V185.938ZM82.4727 203L78.4648 195.336L81.5469 195.324L85.6133 202.848V203H82.4727ZM93.1602 203.234C92.2227 203.234 91.375 203.082 90.6172 202.777C89.8672 202.465 89.2266 202.031 88.6953 201.477C88.1719 200.922 87.7695 200.27 87.4883 199.52C87.207 198.77 87.0664 197.961 87.0664 197.094V196.625C87.0664 195.633 87.2109 194.734 87.5 193.93C87.7891 193.125 88.1914 192.438 88.707 191.867C89.2227 191.289 89.832 190.848 90.5352 190.543C91.2383 190.238 92 190.086 92.8203 190.086C93.7266 190.086 94.5195 190.238 95.1992 190.543C95.8789 190.848 96.4414 191.277 96.8867 191.832C97.3398 192.379 97.6758 193.031 97.8945 193.789C98.1211 194.547 98.2344 195.383 98.2344 196.297V197.504H88.4375V195.477H95.4453V195.254C95.4297 194.746 95.3281 194.27 95.1406 193.824C94.9609 193.379 94.6836 193.02 94.3086 192.746C93.9336 192.473 93.4336 192.336 92.8086 192.336C92.3398 192.336 91.9219 192.438 91.5547 192.641C91.1953 192.836 90.8945 193.121 90.6523 193.496C90.4102 193.871 90.2227 194.324 90.0898 194.855C89.9648 195.379 89.9023 195.969 89.9023 196.625V197.094C89.9023 197.648 89.9766 198.164 90.125 198.641C90.2812 199.109 90.5078 199.52 90.8047 199.871C91.1016 200.223 91.4609 200.5 91.8828 200.703C92.3047 200.898 92.7852 200.996 93.3242 200.996C94.0039 200.996 94.6094 200.859 95.1406 200.586C95.6719 200.312 96.1328 199.926 96.5234 199.426L98.0117 200.867C97.7383 201.266 97.3828 201.648 96.9453 202.016C96.5078 202.375 95.9727 202.668 95.3398 202.895C94.7148 203.121 93.9883 203.234 93.1602 203.234ZM103.238 193.027V203H100.414V190.32H103.074L103.238 193.027ZM102.734 196.191L101.82 196.18C101.828 195.281 101.953 194.457 102.195 193.707C102.445 192.957 102.789 192.312 103.227 191.773C103.672 191.234 104.203 190.82 104.82 190.531C105.438 190.234 106.125 190.086 106.883 190.086C107.492 190.086 108.043 190.172 108.535 190.344C109.035 190.508 109.461 190.777 109.812 191.152C110.172 191.527 110.445 192.016 110.633 192.617C110.82 193.211 110.914 193.941 110.914 194.809V203H108.078V194.797C108.078 194.188 107.988 193.707 107.809 193.355C107.637 192.996 107.383 192.742 107.047 192.594C106.719 192.438 106.309 192.359 105.816 192.359C105.332 192.359 104.898 192.461 104.516 192.664C104.133 192.867 103.809 193.145 103.543 193.496C103.285 193.848 103.086 194.254 102.945 194.715C102.805 195.176 102.734 195.668 102.734 196.191ZM119.609 190.32V192.383H112.461V190.32H119.609ZM114.523 187.215H117.348V199.496C117.348 199.887 117.402 200.188 117.512 200.398C117.629 200.602 117.789 200.738 117.992 200.809C118.195 200.879 118.434 200.914 118.707 200.914C118.902 200.914 119.09 200.902 119.27 200.879C119.449 200.855 119.594 200.832 119.703 200.809L119.715 202.965C119.48 203.035 119.207 203.098 118.895 203.152C118.59 203.207 118.238 203.234 117.84 203.234C117.191 203.234 116.617 203.121 116.117 202.895C115.617 202.66 115.227 202.281 114.945 201.758C114.664 201.234 114.523 200.539 114.523 199.672V187.215Z" fill="#1E1E1E"/>
<path d="M139.215 200.668V203H130.156V200.668H139.215ZM130.988 185.938V203H128.047V185.938H130.988ZM138.031 193.062V195.359H130.156V193.062H138.031ZM139.156 185.938V188.281H130.156V185.938H139.156ZM148.484 200.457V194.41C148.484 193.957 148.402 193.566 148.238 193.238C148.074 192.91 147.824 192.656 147.488 192.477C147.16 192.297 146.746 192.207 146.246 192.207C145.785 192.207 145.387 192.285 145.051 192.441C144.715 192.598 144.453 192.809 144.266 193.074C144.078 193.34 143.984 193.641 143.984 193.977H141.172C141.172 193.477 141.293 192.992 141.535 192.523C141.777 192.055 142.129 191.637 142.59 191.27C143.051 190.902 143.602 190.613 144.242 190.402C144.883 190.191 145.602 190.086 146.398 190.086C147.352 190.086 148.195 190.246 148.93 190.566C149.672 190.887 150.254 191.371 150.676 192.02C151.105 192.66 151.32 193.465 151.32 194.434V200.07C151.32 200.648 151.359 201.168 151.438 201.629C151.523 202.082 151.645 202.477 151.801 202.812V203H148.906C148.773 202.695 148.668 202.309 148.59 201.84C148.52 201.363 148.484 200.902 148.484 200.457ZM148.895 195.289L148.918 197.035H146.891C146.367 197.035 145.906 197.086 145.508 197.188C145.109 197.281 144.777 197.422 144.512 197.609C144.246 197.797 144.047 198.023 143.914 198.289C143.781 198.555 143.715 198.855 143.715 199.191C143.715 199.527 143.793 199.836 143.949 200.117C144.105 200.391 144.332 200.605 144.629 200.762C144.934 200.918 145.301 200.996 145.73 200.996C146.309 200.996 146.812 200.879 147.242 200.645C147.68 200.402 148.023 200.109 148.273 199.766C148.523 199.414 148.656 199.082 148.672 198.77L149.586 200.023C149.492 200.344 149.332 200.688 149.105 201.055C148.879 201.422 148.582 201.773 148.215 202.109C147.855 202.438 147.422 202.707 146.914 202.918C146.414 203.129 145.836 203.234 145.18 203.234C144.352 203.234 143.613 203.07 142.965 202.742C142.316 202.406 141.809 201.957 141.441 201.395C141.074 200.824 140.891 200.18 140.891 199.461C140.891 198.789 141.016 198.195 141.266 197.68C141.523 197.156 141.898 196.719 142.391 196.367C142.891 196.016 143.5 195.75 144.219 195.57C144.938 195.383 145.758 195.289 146.68 195.289H148.895ZM161.387 199.566C161.387 199.285 161.316 199.031 161.176 198.805C161.035 198.57 160.766 198.359 160.367 198.172C159.977 197.984 159.398 197.812 158.633 197.656C157.961 197.508 157.344 197.332 156.781 197.129C156.227 196.918 155.75 196.664 155.352 196.367C154.953 196.07 154.645 195.719 154.426 195.312C154.207 194.906 154.098 194.438 154.098 193.906C154.098 193.391 154.211 192.902 154.438 192.441C154.664 191.98 154.988 191.574 155.41 191.223C155.832 190.871 156.344 190.594 156.945 190.391C157.555 190.188 158.234 190.086 158.984 190.086C160.047 190.086 160.957 190.266 161.715 190.625C162.48 190.977 163.066 191.457 163.473 192.066C163.879 192.668 164.082 193.348 164.082 194.105H161.258C161.258 193.77 161.172 193.457 161 193.168C160.836 192.871 160.586 192.633 160.25 192.453C159.914 192.266 159.492 192.172 158.984 192.172C158.5 192.172 158.098 192.25 157.777 192.406C157.465 192.555 157.23 192.75 157.074 192.992C156.926 193.234 156.852 193.5 156.852 193.789C156.852 194 156.891 194.191 156.969 194.363C157.055 194.527 157.195 194.68 157.391 194.82C157.586 194.953 157.852 195.078 158.188 195.195C158.531 195.312 158.961 195.426 159.477 195.535C160.445 195.738 161.277 196 161.973 196.32C162.676 196.633 163.215 197.039 163.59 197.539C163.965 198.031 164.152 198.656 164.152 199.414C164.152 199.977 164.031 200.492 163.789 200.961C163.555 201.422 163.211 201.824 162.758 202.168C162.305 202.504 161.762 202.766 161.129 202.953C160.504 203.141 159.801 203.234 159.02 203.234C157.871 203.234 156.898 203.031 156.102 202.625C155.305 202.211 154.699 201.684 154.285 201.043C153.879 200.395 153.676 199.723 153.676 199.027H156.406C156.438 199.551 156.582 199.969 156.84 200.281C157.105 200.586 157.434 200.809 157.824 200.949C158.223 201.082 158.633 201.148 159.055 201.148C159.562 201.148 159.988 201.082 160.332 200.949C160.676 200.809 160.938 200.621 161.117 200.387C161.297 200.145 161.387 199.871 161.387 199.566ZM172.215 203.234C171.277 203.234 170.43 203.082 169.672 202.777C168.922 202.465 168.281 202.031 167.75 201.477C167.227 200.922 166.824 200.27 166.543 199.52C166.262 198.77 166.121 197.961 166.121 197.094V196.625C166.121 195.633 166.266 194.734 166.555 193.93C166.844 193.125 167.246 192.438 167.762 191.867C168.277 191.289 168.887 190.848 169.59 190.543C170.293 190.238 171.055 190.086 171.875 190.086C172.781 190.086 173.574 190.238 174.254 190.543C174.934 190.848 175.496 191.277 175.941 191.832C176.395 192.379 176.73 193.031 176.949 193.789C177.176 194.547 177.289 195.383 177.289 196.297V197.504H167.492V195.477H174.5V195.254C174.484 194.746 174.383 194.27 174.195 193.824C174.016 193.379 173.738 193.02 173.363 192.746C172.988 192.473 172.488 192.336 171.863 192.336C171.395 192.336 170.977 192.438 170.609 192.641C170.25 192.836 169.949 193.121 169.707 193.496C169.465 193.871 169.277 194.324 169.145 194.855C169.02 195.379 168.957 195.969 168.957 196.625V197.094C168.957 197.648 169.031 198.164 169.18 198.641C169.336 199.109 169.562 199.52 169.859 199.871C170.156 200.223 170.516 200.5 170.938 200.703C171.359 200.898 171.84 200.996 172.379 200.996C173.059 200.996 173.664 200.859 174.195 200.586C174.727 200.312 175.188 199.926 175.578 199.426L177.066 200.867C176.793 201.266 176.438 201.648 176 202.016C175.562 202.375 175.027 202.668 174.395 202.895C173.77 203.121 173.043 203.234 172.215 203.234Z" fill="#009F55"/>
<path d="M67 94.1199V165C67 170.523 71.4772 175 77 175H125C130.523 175 135 170.523 135 165V107V85.5V59.5317C135 51.3789 125.768 46.6523 119.154 51.4186L71.1538 86.0068C68.5456 87.8863 67 90.9051 67 94.1199Z" stroke="#1E1E1E" stroke-width="5"/>
<path d="M94.8176 119.051L131.061 90.5429C134.904 87.5195 140.371 87.7195 143.983 91.0157L174.74 119.08C176.817 120.974 178 123.656 178 126.467V165C178 170.523 173.523 175 168 175H101C95.4772 175 91 170.523 91 165V126.911C91 123.844 92.4072 120.947 94.8176 119.051Z" stroke="white" stroke-width="10"/>
<path d="M94.8176 119.051L131.061 90.5429C134.904 87.5195 140.371 87.7195 143.983 91.0157L174.74 119.08C176.817 120.974 178 123.656 178 126.467V165C178 170.523 173.523 175 168 175H101C95.4772 175 91 170.523 91 165V126.911C91 123.844 92.4072 120.947 94.8176 119.051Z" stroke="#009F55" stroke-width="6"/>
</svg>
